<?xml version="1.0" encoding="UTF-8"?>
<svg id="Layer_3" data-name="Layer 3" xmlns="http://www.w3.org/2000/svg" viewBox="0 0 1413.35 988.41">
  <defs>
    <style>
      .cls-1 {
        fill: #2e1d63;
      }
    </style>
  </defs>
  <path class="cls-1" d="M358.55,268.39c0,48.75-5.83,82.01-17.49,99.79-21.41,32.51-74.84,48.75-160.29,48.75-38.62,0-68.35-2.96-89.18-8.89-33.26-9.56-54.87-27.81-64.8-54.77-4.97-13.19-7.46-36.7-7.46-70.54,0-7.84.29-19.5.86-34.98.58-15.48.86-27.04.86-34.69,0-22.17-1.05-55.43-3.15-99.79-2.1-44.35-3.16-77.52-3.16-99.51,0-4.58,2.01-6.88,6.02-6.88,11.66,0,29.29.47,52.9,1.43,23.61.96,41.24,1.43,52.9,1.43,4.77,0,7.17,2.11,7.17,6.31,0,25.23-.82,63.04-2.44,113.41-1.63,50.38-2.44,88.17-2.44,113.41,0,30.02,3.16,50.27,9.46,60.79,8.41,14.34,26,21.5,52.76,21.5,39.19,0,58.78-19.01,58.78-57.06,0-27.71-.67-69.29-2.01-124.74-1.34-55.43-2.01-97.02-2.01-124.73,0-5.93,2.39-8.89,7.17-8.89,11.28,0,28.29-.47,51.04-1.43,22.74-.96,39.76-1.43,51.04-1.43,5.54,0,8.32,2.3,8.32,6.88,0,21.99-.91,55.15-2.72,99.51-1.82,44.35-2.72,77.61-2.72,99.79,0,6.12.09,15.34.28,27.67.19,12.33.29,21.55.29,27.67Z"/>
  <path class="cls-1" d="M577.05,410.34c-25.81,0-40.53-.39-44.16-1.15-3.63-.76-6.7-3.53-9.18-8.31-21.79-43.01-43.69-86.12-65.67-129.33-34.6-69.39-51.9-108.67-51.9-117.85,0-15.1.53-37.8,1.58-68.11,1.05-30.29,1.58-52.99,1.58-68.1,0-7.07,1.91-10.61,5.74-10.61,11.47,0,28.86.47,52.19,1.43s40.81,1.43,52.48,1.43c4.77,0,7.17,2.01,7.17,6.02,0,15.49-1.1,38.76-3.3,69.82-2.2,31.07-3.3,54.34-3.3,69.83,0,11.85,19.4,54.2,58.21,127.03,10.51-18.92,22.46-42.15,35.84-69.68,17.97-37.08,26.95-59.83,26.95-68.24,0-13.95-.19-34.94-.57-62.94-.39-28.01-.58-48.99-.58-62.94,0-5.17.86-8.03,2.58-8.61h9.18c10.51,0,26.43-.53,47.74-1.58,21.31-1.05,37.23-1.58,47.75-1.58,5.74,0,8.6,2.3,8.6,6.88,0,14.72-.24,36.95-.72,66.67-.48,29.73-.72,52.04-.72,66.96,0,11.86-18.83,55.44-56.49,130.76-14.91,27.15-36.42,68.06-64.52,122.73-1.91,4.2-3.2,6.55-3.87,7.02-.67.48-3.11.91-7.31,1.29-9.75.76-24.85,1.15-45.31,1.15Z"/>
  <path class="cls-1" d="M1125.06,402.02c0,3.44-2.39,5.84-7.17,7.17-5.74,1.53-23.51,2.3-53.34,2.3-27.34,0-44.92-.76-52.76-2.3-6.5-1.33-10.61-5.63-12.33-12.9-6.5-27.53-11.57-42.24-15.2-44.16-3.06-1.34-28.67-2.01-76.85-2.01-32.5,0-49.8.86-51.9,2.58-3.25,3.06-6.88,13.28-10.9,30.68-3.63,15.87-8.03,24.48-13.19,25.81-6.5,1.53-28.29,2.3-65.38,2.3-29.25,0-43.87-2.77-43.87-8.32,0-4.97,21.6-66.04,64.8-183.23,46.83-126.74,72.26-196.42,76.28-209.04,2.3-7.27,4.97-10.9,8.03-10.9,5.16,0,13.14.47,23.94,1.43,10.8.96,18.88,1.43,24.23,1.43s12.76-.33,22.79-1,17.54-1.01,22.51-1.01c3.63,0,6.98,3.15,10.04,9.46,9.37,20.07,36.71,88.89,82.01,206.46,45.5,118.33,68.24,180.08,68.24,185.24ZM921.75,140.79c-4.01,8.41-10.8,26.66-20.36,54.77-10.32,29.82-15.48,47.32-15.48,52.48,0,3.44,5.74,5.35,17.2,5.74,5.92.38,15.67.58,29.25.58,12.62,0,19.59-1.53,20.93-4.59.38-.96.58-2.3.58-4.02,0-6.3-4.4-23.7-13.19-52.19-8.6-27.53-14.91-45.11-18.93-52.76Z"/>
  <path class="cls-1" d="M345.52,817.93c0,3.06-2,7.07-6.02,12.05-35.18,41.86-81.92,62.8-140.22,62.8s-108.01-20.36-145.1-61.08C18.06,792.32,0,742.61,0,682.59s17.67-107.43,53.05-147.96c36.89-42.44,83.82-63.66,140.79-63.66,61.94,0,110.49,19.02,145.67,57.06,3.82,4.21,5.74,7.94,5.74,11.18,0,3.63-6.65,17.11-19.93,40.43-13.28,23.33-21.65,36.42-25.09,39.29-1.53,1.53-3.44,2.3-5.74,2.3-.96,0-5.74-3.82-14.34-11.47-10.33-9.18-20.46-16.34-30.4-21.5-15.11-7.64-30.78-11.47-47.03-11.47-28.1,0-50.56,10.51-67.38,31.54-15.49,19.5-23.23,43.59-23.23,72.26s7.74,53.43,23.23,73.12c16.82,21.41,39.28,32.11,67.38,32.11,16.63,0,32.41-3.63,47.32-10.9,9.75-4.77,19.69-11.47,29.82-20.07,8.41-7.26,13.09-10.9,14.05-10.9,1.91,0,3.82,1.05,5.74,3.15,3.06,3.44,11.37,15.39,24.95,35.85,13.95,21.22,20.93,32.88,20.93,34.98Z"/>
  <path class="cls-1" d="M625.28,887.61c-16.44,0-23.11-.39-49.5-1.15-34.41-.76-55.82-1.24-64.23-1.43l-85.74-1.14c-8.6.19-20.93-.19-36.99-1.15-5.55-.95-8.31-3.91-8.31-8.89,0-20.83.33-52.04,1-93.63.67-41.57,1.01-72.78,1.01-93.62,0-22.17-.68-55.39-2.01-99.64-1.35-44.26-2.01-77.47-2.01-99.65,0-4.2,2.86-6.3,8.6-6.3s14.29.28,25.66.86c11.37.58,19.83.86,25.38.86,6.3,0,15.67-.33,28.1-1.01,12.43-.67,21.8-1,28.1-1,2.87,0,4.2,1.81,4.02,5.45l-.29,3.73c-2.29,35.94-4.87,89.94-7.74,162.01l-.28,75.7c0,24.47.09,42.34.28,53.62.19,2.3.38,4.58.58,6.88.19,2.3,1.63,3.73,4.3,4.3h7.46c17.21,0,28.22-.91,62.54-2.73,34.31-1.81,60.08-2.72,77.28-2.72,5.16,0,7.74,2.2,7.74,6.59,0,32.69-2.39,60.89-7.17,84.59-.96,4.97-2.96,7.93-6.02,8.89-.96.38-4.88.58-11.76.58Z"/>
  <path class="cls-1" d="M1017.92,741.94c0,48.75-5.83,82.01-17.49,99.79-21.41,32.51-67.47,48.75-152.92,48.75-38.62,0-68.35-2.96-89.18-8.89-33.26-9.56-54.87-27.81-64.8-54.77-4.97-13.19-7.46-36.7-7.46-70.54,0-7.84.29-19.5.86-34.98.57-15.48.86-27.04.86-34.69,0-22.17-1.05-55.43-3.15-99.79-2.11-44.35-3.15-77.52-3.15-99.51,0-4.58,2-6.88,6.02-6.88,11.66,0,29.3.47,52.91,1.43,23.6.96,41.24,1.43,52.9,1.43,4.78,0,7.17,2.11,7.17,6.31,0,25.23-.81,63.04-2.43,113.41-1.63,50.38-2.44,88.17-2.44,113.41,0,30.02,3.15,50.27,9.46,60.79,8.41,14.34,25.99,21.5,52.76,21.5,39.18,0,51.41-19.01,51.41-57.06,0-27.71-.67-69.29-2.01-124.74-1.34-55.43-2.01-97.02-2.01-124.73,0-5.93,2.39-8.89,7.17-8.89,11.28,0,28.29-.47,51.04-1.43,22.75-.96,39.76-1.43,51.04-1.43,5.54,0,8.32,2.3,8.32,6.88,0,21.99-.91,55.15-2.73,99.51s-2.72,77.61-2.72,99.79c0,6.12.09,15.34.29,27.67.19,12.33.28,21.55.28,27.67Z"/>
  <path class="cls-1" d="M1413.35,758.86c0,35.18-11,64.33-32.97,87.46-25.04,26.57-69.01,39.85-131.9,39.85-4.78,0-11.67-.09-20.65-.28h-20.36c-70.54,0-112.5-1.44-125.88-4.3-5.55-1.15-8.32-4.11-8.32-8.89,0-20.45,1.19-51.43,3.58-92.91,2.39-41.48,3.59-72.55,3.59-93.19,0-22.17-1.15-63.85-3.45-125.02-.57-15.67-1.63-39.18-3.15-70.54l-.29-4.02c-.19-3.63,2.82-5.83,9.03-6.59s28.34-1.15,66.39-1.15c60.98,0,96.63.19,106.95.58,47.03,1.72,81.72,9.37,104.09,22.94,29.63,18.16,44.45,48.84,44.45,92.04,0,11.28-3.44,23.23-10.32,35.85-4.97,8.99-11.47,17.97-19.5,26.95-7.07,7.84-10.61,11.47-10.61,10.9,0,1.34,2.48,3.44,7.46,6.3,13.38,7.65,23.89,19.79,31.54,36.42,6.88,14.91,10.32,30.78,10.32,47.6ZM1290.06,597.42c0-16.44-8.23-27.34-24.66-32.69-9.18-2.86-24.28-4.3-45.31-4.3s-30.97,1.53-30.97,4.58c0,3.63-.34,9.13-1,16.49-.68,7.36-1.01,12.86-1.01,16.49,0,19.11,1.62,29.82,4.87,32.11,2.1,1.72,14.24,2.58,36.42,2.58,41.1,0,61.65-11.76,61.65-35.27ZM1298.65,757.72c0-17.21-7.17-28.87-21.5-34.99-9.18-3.82-24.09-5.74-44.73-5.74-24.66,0-38.05.91-40.15,2.73-2.1,1.82-3.15,13.53-3.15,35.13s1.24,35.03,3.73,37.42c2.48,2.39,16.25,3.58,41.29,3.58,20.65,0,35.17-1.62,43.58-4.87,13.95-5.54,20.93-16.63,20.93-33.26Z"/>
  <circle class="cls-1" cx="1133.05" cy="110.58" r="64.14"/>
  <circle class="cls-1" cx="1307.26" cy="109.94" r="64.14"/>
  <circle class="cls-1" cx="1211.63" cy="262.91" r="64.14"/>
</svg>