<?xml version="1.0" encoding="UTF-8"?>
<svg id="Layer_4" data-name="Layer 4" xmlns="http://www.w3.org/2000/svg" viewBox="0 0 2628.27 988.41">
  <defs>
    <style>
      .cls-1 {
        fill: #fff8e8;
      }
    </style>
  </defs>
  <g>
    <path class="cls-1" d="M351.34,213.23c0,21.25-.87,53.06-2.61,95.46-1.74,42.4-2.61,74.22-2.61,95.46,0,6.04.09,15.02.27,26.92.18,11.91.28,20.88.28,26.92,0,50.91-7.33,84.88-21.98,101.91-22.16,26.37-75.91,39.56-161.25,39.56-48.17,0-83.78-4.85-106.86-14.56-21.61-9.16-36.08-24.35-43.4-45.6-5.49-16.3-8.24-43.13-8.24-80.49,0-5.31.09-14.01.27-26.1v-28.57c0-21.24-.87-53.16-2.61-95.73-1.74-42.58-2.61-74.49-2.61-95.73,0-4.03,2.2-6.04,6.59-6.04,13.55,0,34.02.18,61.4.55,27.38.37,47.84.55,61.4.55,11.72,0,16.21-.09,13.46-.27,6.22.55,9.34,2.57,9.34,6.04,0,21.06-.96,52.74-2.89,95.05-1.92,42.3-2.88,73.99-2.88,95.05,0,2.38-.09,6.5-.27,12.36-.19,5.86-.28,10.35-.28,13.46,0,35.35,10.89,53.02,32.69,53.02,17.76,0,26.65-13.64,26.65-40.93,0-24.9-.78-62.36-2.33-112.35-1.56-50-2.34-87.44-2.34-112.35,0-5.49,1.55-8.33,4.67-8.52,6.59-.73,18.04-.82,34.34-.27,21.98.55,33.88.82,35.71.82,7.69,0,19.23-.37,34.61-1.1,15.38-.73,26.92-1.1,34.61-1.1,4.58,0,6.87,2.2,6.87,6.59Z"/>
    <path class="cls-1" d="M681.53,394.54c0,37.54-1.1,59.15-3.3,64.83-6.04,15.2-19.87,39.83-41.48,73.9-24.72,39.19-41.11,58.78-49.17,58.78-5.86,0-14.74-.37-26.65-1.1-11.91-.73-20.79-1.1-26.65-1.1-6.23,0-15.43.37-27.61,1.1-12.18.73-21.38,1.1-27.61,1.1-8.06,0-24.36-19.5-48.9-58.51-21.06-33.51-34.98-58.24-41.75-74.17-5.13-12.64-7.69-34.24-7.69-64.83,0-6.96.18-17.44.55-31.45.37-14.01.55-24.49.55-31.45,0-6.04,3.94-9.07,11.81-9.07,6.96,0,17.53.37,31.73,1.1,14.19.73,24.77,1.1,31.73,1.1,6.04,0,14.97-.36,26.78-1.1,11.81-.73,20.74-1.1,26.78-1.1,4.76,0,7.14,3.39,7.14,10.16,0,7.51-.37,18.91-1.1,34.2-.73,15.29-1.1,26.78-1.1,34.47,0,41.21,5.67,61.81,17.03,61.81,13,0,19.5-27.92,19.5-83.78,0-5.31-.55-13.14-1.65-23.49-1.1-10.35-1.65-18.08-1.65-23.21,0-6.77,2.47-10.16,7.42-10.16,5.86,0,14.74.37,26.65,1.1,11.9.73,20.78,1.1,26.65,1.1,6.22,0,15.52-.36,27.88-1.1,12.36-.73,21.65-1.1,27.88-1.1,4.21,0,6.87.46,7.97,1.37,1.1.92,2.38,3.48,3.84,7.69,2.93,8.97,4.4,29.94,4.4,62.91Z"/>
    <path class="cls-1" d="M1025.18,344.27c0,1.28-.37,3.57-1.1,6.87-7.88,41.75-11.81,75.36-11.81,100.82,0,19.78,1.46,48.53,4.4,86.26l3.02,42.03c0,7.33-3.94,11.26-11.81,11.81h-49.45c-6.04,0-15.16.37-27.33,1.1-12.18.73-21.29,1.1-27.33,1.1-7.51,0-11.45-3.66-11.81-10.99-.37-7.32-1.65-10.99-3.85-10.99.92,0-7.05,4.35-23.9,13.05-16.85,8.7-30.86,13.05-42.03,13.05-35.9,0-65.2-14.01-87.9-42.03-21.25-26.19-31.87-57.78-31.87-94.77,0-43.03,11.99-78.84,35.99-107.41,19.96-23.62,52.37-35.44,97.24-35.44,9.34,0,22.43,2.98,39.28,8.93,16.85,5.95,25.09,8.93,24.72,8.93,1.46,0,2.7-3.2,3.71-9.61,1-6.41,3.52-9.62,7.55-9.62,6.04,0,24.08,3.02,54.12,9.07,28.75,5.86,47.15,9.98,55.22,12.36,3.3,1.1,4.94,2.93,4.94,5.49ZM888.11,455.25c0-16.85-8.24-25.27-24.72-25.27-7.51,0-13.83,2.38-18.95,7.14-5.13,4.76-7.69,10.81-7.69,18.13s2.56,13.28,7.69,17.85c5.12,4.58,11.44,6.87,18.95,6.87s13.05-2.33,17.72-7.01c4.67-4.67,7-10.58,7-17.72Z"/>
    <path class="cls-1" d="M1404.82,261.31c0,3.84-8.65,21.38-25.96,52.6-17.3,31.23-27.7,48.21-31.18,50.96-2.75,2.2-5.31,3.3-7.69,3.3-.92,0-4.95-3.02-12.08-9.07-8.61-7.14-16.94-12.64-25-16.48-12.46-5.86-25.64-8.79-39.56-8.79-17.58,0-32.46,6.36-44.64,19.09-12.18,12.73-18.27,27.88-18.27,45.46s6.09,33.1,18.27,46.01c12.18,12.91,27.06,19.37,44.64,19.37,29.49,0,52.2-8.79,68.13-26.37,2.56-2.93,4.49-4.39,5.77-4.39,2.2,0,13.37,14.83,33.52,44.5,20.33,30.4,30.49,48.17,30.49,53.29,0,3.48-2.1,7.97-6.31,13.46-14.47,18.68-34.98,33.33-61.53,43.95-24,9.71-48.81,14.56-74.44,14.56-56.59,0-104.71-19.64-144.36-58.92-39.65-39.28-59.47-87.12-59.47-143.53s19.82-104.7,59.47-144.35c39.65-39.65,87.77-59.47,144.36-59.47s103.38,17.85,139.27,53.57c4.39,4.21,6.59,7.97,6.59,11.26Z"/>
    <path class="cls-1" d="M1573.21,212.41c0,1.1-.18,3.48-.55,7.14-5.31,58.61-7.97,115.47-7.97,170.59,0,20.33.32,50.87.96,91.61.64,40.75.96,71.28.96,91.61,0,7.88-.09,12.09-.27,12.64-.92,4.03-3.85,6.04-8.79,6.04-6.41,0-15.98-.37-28.71-1.1-12.73-.73-22.3-1.1-28.71-1.1s-15.98.37-28.7,1.1c-12.73.73-22.3,1.1-28.71,1.1-5.13,0-8.15-2.01-9.07-6.04v-12.64c0-20.33.27-50.86.83-91.61.55-40.75.82-71.29.82-91.61s-1.33-49.35-3.98-88.73c-2.66-39.37-3.98-68.86-3.98-88.45,0-3.85.92-6.22,2.75-7.14,1.1-.55,2.84-.82,5.22-.82,7.32,0,18.17.28,32.55.82,14.37.55,25.13.83,32.28.83s17.9-.28,32.28-.83c14.37-.55,25.13-.82,32.28-.82,5.67,0,8.51,2.47,8.51,7.42Z"/>
    <path class="cls-1" d="M1921.53,332.18c0,14.65-.74,36.67-2.2,66.07-1.47,29.39-2.2,51.42-2.2,66.07,0,12.82.55,32.05,1.65,57.69,1.1,25.64,1.65,44.87,1.65,57.69,0,5.68-1.37,9.34-4.12,10.99-1.83,1.1-5.77,1.65-11.81,1.65s-15.11-.23-27.2-.69c-12.09-.45-21.15-.69-27.2-.69-6.59,0-16.53.55-29.81,1.65-13.28,1.1-23.12,1.65-29.53,1.65-3.48,0-5.68-5.59-6.59-16.76-.92-11.17-2.47-16.76-4.67-16.76,1.65,0-6.55,5.4-24.58,16.21-18.04,10.81-35.49,16.21-52.33,16.21-47.07,0-75.36-21.98-84.88-65.93-4.77-22.53-7.14-51.92-7.14-88.18,0-48.53,3.66-84.7,10.99-108.51,2.38-7.51,6.96-11.26,13.73-11.26,5.31,0,13.41.28,24.31.83,10.89.55,19.09.82,24.59.82,6.22,0,15.56-.09,28.02-.28,12.45-.18,21.88-.27,28.29-.27,7.14,0,10.71,3.48,10.71,10.44,0,8.98-.69,22.66-2.06,41.07-1.37,18.4-2.06,32.19-2.06,41.34,0,47.98,6.59,71.97,19.78,71.97,10.44,0,15.66-5.03,15.66-15.11v-128.29c0-9.34,1.83-15.38,5.49-18.13,3.11-2.2,9.52-3.3,19.23-3.3h102.46c7.87,0,11.81,3.94,11.81,11.81Z"/>
    <path class="cls-1" d="M2279.19,455.25c0,41.2-10.71,74.17-32.14,98.89-22.53,26.37-54.03,39.56-94.5,39.56-8.24,0-19.83-2.47-34.75-7.42-14.93-4.95-22.02-7.42-21.29-7.42-1.47,0-2.52,2.61-3.16,7.83-.64,5.22-2.52,7.83-5.63,7.83-6.96,0-17.49-.32-31.59-.96-14.11-.64-24.72-.96-31.87-.96-5.86,0-14.65.18-26.37.55-11.72.37-20.51.55-26.37.55-10.07,0-15.11-2.47-15.11-7.42,0-1.1.18-2.93.55-5.49,4.39-30.77,6.59-85.52,6.59-164.27,0-23.8-2.2-73.62-6.59-149.44-2.38-38.82-3.57-57.23-3.57-55.22,0-5.12,3.02-7.78,9.06-7.97,14.29.18,35.71,0,64.28-.55,6.59-.37,17.67-1.83,33.24-4.4,14.29-2.38,25.27-3.57,32.97-3.57,3.48,0,5.22,3.02,5.22,9.06,0,6.41-.6,16.12-1.79,29.12-1.19,13-1.79,22.8-1.79,29.39v62.91c0,5.31.91,7.97,2.75,7.97,21.98-12.09,40.75-18.13,56.31-18.13,40.84,0,72.34,13.37,94.5,40.11,20.69,24.91,31.04,58.06,31.04,99.44ZM2146.51,453.05c0-7.32-2.52-13.46-7.55-18.4s-11.12-7.42-18.27-7.42c-7.51,0-13.73,2.43-18.68,7.28-4.95,4.85-7.42,11.03-7.42,18.54s2.47,13.69,7.42,18.54c4.94,4.86,11.17,7.28,18.68,7.28s13.69-2.42,18.54-7.28,7.28-11.03,7.28-18.54Z"/>
  </g>
  <circle class="cls-1" cx="2350.75" cy="275.14" r="79.62"/>
  <circle class="cls-1" cx="2548.63" cy="342.94" r="79.62"/>
  <circle class="cls-1" cx="2404" cy="495.25" r="79.62"/>
</svg>