<?xml version="1.0" encoding="UTF-8"?>
<svg id="Layer_1" data-name="Layer 1" xmlns="http://www.w3.org/2000/svg" viewBox="0 0 969.06 948.43">
  <path fill="#2E1D63" d="M908.54.32c41.84-3.72,78.19,25.06,51.27,66.98-19.67,30.64-66.48,68.09-93.71,94.81-208.77,204.84-356.7,439.33-471.26,707.84-8.14,19.08-16.38,46.14-25.92,63.38-11.45,20.7-37.48,19.46-50.11.2-14.23-21.7-26.87-47.78-40.33-70.47-70.59-118.9-141.12-220.6-240.84-317.29-10.04-9.73-33.37-26.73-36.57-39.5s1.02-28.32,7.68-38.96c28.02-44.75,102.46-20.79,142.16-6.7,57.41,20.37,112.04,49.06,166.07,76.83,51.9-60.19,104.07-120.18,158.04-178.53,82.32-89,170.45-180.51,263.35-258.4C779.11,66.36,855.27,5.06,908.54.32Z"/>
</svg>