<?xml version="1.0" encoding="UTF-8"?>
<svg id="Layer_1" data-name="Layer 1" xmlns="http://www.w3.org/2000/svg" viewBox="0 0 265.33 267.13" fill="#fffef3">
  <path d="M0,266.97l18.11-63.78C-42.56,94,60.53-35.54,180.24,9.01c141.46,52.65,97.69,272.06-65.91,255.71-15.97-1.6-37.53-14.21-48.62-13.96-10.17.23-63.03,18.27-65.71,16.21ZM98.47,73.61c-8.47-8.58-23.6,1.27-28.66,9.78-20.82,35.03,30.52,88.64,60.4,102.85,19.32,9.19,54.15,20.59,67.4-3.33,12.87-23.23-12.18-25.36-28.93-33.11-7.41.73-11.04,13.15-15.21,15.24-14.51,7.3-50.1-27.93-53.98-42.48,4.06-4.93,12.31-12.58,11.23-19.68-.24-1.57-11.13-28.15-12.25-29.28Z"/>
</svg>